<?xml version="1.0" encoding="UTF-8" standalone="no"?>
<!DOCTYPE svg PUBLIC "-//W3C//DTD SVG 1.1//EN" "http://www.w3.org/Graphics/SVG/1.1/DTD/svg11.dtd">
<svg width="100%" height="100%" viewBox="0 0 512 512" version="1.1" xmlns="http://www.w3.org/2000/svg" xmlns:xlink="http://www.w3.org/1999/xlink" xml:space="preserve" xmlns:serif="http://www.serif.com/" style="fill-rule:evenodd;clip-rule:evenodd;stroke-linejoin:round;stroke-miterlimit:2;">
    <path d="M479.253,210.475C433.621,210.475 391.317,195.883 356.8,171.093L356.8,349.973C356.8,439.317 284.117,511.979 194.795,511.979C160.277,511.979 128.256,501.099 101.952,482.624C60.181,453.291 32.789,404.779 32.789,349.973C32.789,260.629 105.472,187.947 194.816,187.947C202.24,187.947 209.493,188.565 216.64,189.525L216.64,279.381C209.728,277.227 202.432,275.968 194.816,275.968C154.027,275.968 120.832,309.163 120.832,349.973C120.832,378.389 136.96,403.072 160.512,415.467C170.773,420.864 182.443,423.957 194.837,423.957C234.688,423.957 267.2,392.256 268.693,352.747L268.757,0L356.779,0C356.779,7.637 357.525,15.083 358.848,22.336C365.056,55.872 384.96,84.651 412.544,102.635C431.744,115.157 454.656,122.475 479.232,122.475L479.232,210.475L479.253,210.475Z" style="fill:white;fill-rule:nonzero;"/>
</svg>
