<?xml version="1.0" encoding="UTF-8" standalone="no"?>
<!DOCTYPE svg PUBLIC "-//W3C//DTD SVG 1.1//EN" "http://www.w3.org/Graphics/SVG/1.1/DTD/svg11.dtd">
<svg width="100%" height="100%" viewBox="0 0 512 512" version="1.1" xmlns="http://www.w3.org/2000/svg" xmlns:xlink="http://www.w3.org/1999/xlink" xml:space="preserve" xmlns:serif="http://www.serif.com/" style="fill-rule:evenodd;clip-rule:evenodd;stroke-linejoin:round;stroke-miterlimit:2;">
    <g>
        <path d="M476.075,35.925C440.149,0 382.315,0 266.667,0L245.333,0C129.685,0 71.851,0 35.925,35.925C0,71.851 0,129.685 0,245.333L0,266.667C0,382.315 0,440.128 35.925,476.075C71.851,512.021 129.685,512 245.333,512L266.667,512C382.315,512 440.128,512 476.075,476.075C512,440.149 512,382.315 512,266.667L512,245.333C512,129.685 512,71.851 476.075,35.925ZM416.064,362.667L378.731,362.667C364.501,362.667 360.32,351.317 334.997,325.995C312.832,304.64 303.339,301.867 297.813,301.867C290.283,301.867 288.043,304 288.043,314.667L288.043,348.139C288.043,357.312 285.12,362.667 261.376,362.667C221.824,362.667 178.347,338.645 147.477,294.357C101.184,229.483 88.533,180.437 88.533,170.56C88.533,165.013 90.667,160 101.333,160L138.688,160C148.224,160 151.808,164.181 155.392,174.507C173.653,227.691 204.459,274.176 217.109,274.176C221.845,274.176 224.021,271.979 224.021,259.947L224.021,204.971C222.635,179.669 209.173,177.579 209.173,168.576C209.173,164.416 212.736,160 218.667,160L277.355,160C285.269,160 288.021,164.224 288.021,173.717L288.021,247.68C288.021,255.573 291.456,258.347 293.824,258.347C298.581,258.347 302.528,255.573 311.232,246.869C338.133,216.811 357.12,170.539 357.12,170.539C359.509,164.992 363.861,159.979 373.376,159.979L410.709,159.979C421.995,159.979 424.384,165.781 421.995,173.696C417.237,195.456 371.755,259.52 371.755,259.52C367.787,265.856 366.208,269.013 371.755,276.139C375.723,281.685 388.757,292.757 397.461,303.04C413.504,321.088 425.6,336.299 428.971,346.795C432.085,357.333 426.731,362.667 416.064,362.667Z" style="fill:white;fill-rule:nonzero;"/>
    </g>
</svg>
