<?xml version="1.0" encoding="UTF-8" standalone="no"?>
<!DOCTYPE svg PUBLIC "-//W3C//DTD SVG 1.1//EN" "http://www.w3.org/Graphics/SVG/1.1/DTD/svg11.dtd">
<svg width="100%" height="100%" viewBox="0 0 512 512" version="1.1" xmlns="http://www.w3.org/2000/svg" xmlns:xlink="http://www.w3.org/1999/xlink" xml:space="preserve" xmlns:serif="http://www.serif.com/" style="fill-rule:evenodd;clip-rule:evenodd;stroke-linejoin:round;stroke-miterlimit:2;">
    <g id="XMLID_184_">
        <path d="M501.291,131.968C495.403,109.803 478.059,92.331 456.021,86.4C416.107,75.648 256,75.648 256,75.648C256,75.648 95.893,75.648 55.957,86.4C33.941,92.331 16.597,109.781 10.709,131.968C0,172.16 0,256 0,256C0,256 0,339.84 10.709,380.032C16.597,402.197 33.941,419.669 55.979,425.6C95.893,436.352 256,436.352 256,436.352C256,436.352 416.107,436.352 456.043,425.6C478.059,419.669 495.403,402.219 501.312,380.032C512,339.84 512,256 512,256C512,256 512,172.16 501.291,131.968ZM203.648,332.139L203.648,179.861L337.451,256L203.648,332.139Z" style="fill:white;fill-rule:nonzero;"/>
    </g>
</svg>
